<svg width="1008" height="109" xmlns="http://www.w3.org/2000/svg" xmlns:xlink="http://www.w3.org/1999/xlink" overflow="hidden"><defs><clipPath id="clip0"><rect x="136" y="400" width="1008" height="109"/></clipPath></defs><g clip-path="url(#clip0)" transform="translate(-136 -400)"><path d="M164.19 419.356 164.19 449.413 191.35 434.385ZM147.593 403 181 403 181.001 403 182.63 403 182.63 403.158 187.733 403.651C202.956 406.64 214.407 419.562 214.407 435.051 214.407 448.327 205.994 459.717 194.004 464.583L192.299 465.09 225 507 189.936 507 164.84 468.431 164.84 507 137 507 137 464.441 137 449.413 164.16 434.385 137 419.356 137 403 143.851 403 147.593 403Z" fill="#5F5F5F" fill-rule="evenodd"/><path d="M324 404 286.051 456.461 286.051 505 259.687 505 259.687 456.461 223 404 254.488 404 273.649 431.525 292.066 404Z" fill="#5F5F5F" fill-rule="evenodd"/><path d="M421 462.463C421 468.554 420.502 473.754 419.506 478.063 417.961 484.749 414.274 490.84 408.446 496.337 400.176 504.112 389.116 508 375.267 508 361.168 508 350.159 504.038 342.238 496.114 338.053 491.954 335.189 486.73 333.644 480.44 332.548 475.983 332 469.99 332 462.463L332 404 358.528 404 358.528 458.897C358.528 463.305 358.603 466.598 358.753 468.777 359.251 475.661 362.414 480.465 368.243 483.189 370.634 484.328 373.275 484.898 376.164 484.898 382.641 484.898 387.523 482.644 390.81 478.137 393.252 474.819 394.472 468.406 394.472 458.897L394.472 404 421 404Z" fill="#5F5F5F" fill-rule="evenodd"/><path d="M530 462.463C530 468.554 529.508 473.754 528.523 478.063 526.996 484.749 523.351 490.84 517.587 496.337 509.41 504.112 498.475 508 484.781 508 470.841 508 459.954 504.038 452.122 496.114 447.985 491.954 445.152 486.73 443.625 480.44 442.542 475.983 442 469.99 442 462.463L442 404 468.23 404 468.23 458.897C468.23 463.305 468.304 466.598 468.451 468.777 468.944 475.661 472.072 480.465 477.836 483.189 480.2 484.328 482.81 484.898 485.667 484.898 492.071 484.898 496.898 482.644 500.15 478.137 502.563 474.819 503.77 468.406 503.77 458.897L503.77 404 530 404Z" fill="#5F5F5F" fill-rule="evenodd"/><path d="M652 449.006C652 459.92 650.765 468.818 648.294 475.701 644.538 486.172 638.336 494.235 629.688 499.888 621.337 505.296 611.453 508 600.038 508 581.457 508 567.2 501.707 557.267 489.122 549.756 479.585 546 468.204 546 454.979 546 440.329 550.398 428.014 559.194 418.034 569.177 406.678 583.112 401 601.001 401 612.96 401 623.091 404.048 631.393 410.144 637.323 414.47 642.388 420.861 646.589 429.317L621.609 439.567C619.483 434.848 617.012 431.308 614.195 428.948 610.143 425.605 605.325 423.934 599.741 423.934 588.326 423.934 580.37 429.809 575.872 441.558 574.192 445.884 573.352 450.358 573.352 454.979 573.352 464.566 576.391 472.554 582.469 478.945 586.966 483.714 592.971 486.098 600.482 486.098 607.154 486.098 612.441 484.156 616.345 480.272 618.915 477.716 620.595 473.931 621.386 468.916L599.815 468.916 599.815 449.006Z" fill="#5F5F5F" fill-rule="evenodd"/><path d="M765 505 736.828 505 730.286 487.389 693.863 487.389 686.875 505 659 505 698.025 404 726.793 404ZM723.15 467.412 712.223 435.225 701.147 467.412Z" fill="#5F5F5F" fill-rule="evenodd"/><path d="M878 505 851.694 505 803.306 443.142 803.306 505 777 505 777 404 803.306 404 851.694 465.784 851.694 404 878 404Z" fill="#5F5F5F" fill-rule="evenodd"/><path d="M925 505 899 505 899 404 925 404Z" fill="#5F5F5F" fill-rule="evenodd"/><path d="M1069 505 1042.65 505 1035.15 446.842 1010.66 505 1000.19 505 976.81 446.842 968.201 505 942 505 959.219 404 985.198 404 1005.76 457.867 1027.5 404 1053.7 404Z" fill="#5F5F5F" fill-rule="evenodd"/><path d="M1143 505 1085 505 1085 404 1143 404 1143 425.976 1111.5 425.976 1111.5 443.068 1141.28 443.068 1141.28 465.044 1111.5 465.044 1111.5 483.024 1143 483.024Z" fill="#5F5F5F" fill-rule="evenodd"/></g></svg>