<svg width="711" height="573" xmlns="http://www.w3.org/2000/svg" xmlns:xlink="http://www.w3.org/1999/xlink" overflow="hidden"><defs><clipPath id="clip0"><rect x="285" y="354" width="711" height="573"/></clipPath><linearGradient x1="291.303" y1="347.489" x2="989.697" y2="933.511" gradientUnits="userSpaceOnUse" spreadMethod="reflect" id="fill1"><stop offset="0" stop-color="#EB3349"/><stop offset="0.0136986" stop-color="#EB3448"/><stop offset="0.0273973" stop-color="#EB3648"/><stop offset="0.0410959" stop-color="#EB3848"/><stop offset="0.0547945" stop-color="#EB3A48"/><stop offset="0.0684932" stop-color="#EB3C48"/><stop offset="0.0821918" stop-color="#EB3D48"/><stop offset="0.0958904" stop-color="#EB3F48"/><stop offset="0.109589" stop-color="#EB4148"/><stop offset="0.123288" stop-color="#EB4348"/><stop offset="0.136986" stop-color="#EB4448"/><stop offset="0.150685" stop-color="#EB4648"/><stop offset="0.164384" stop-color="#EB4848"/><stop offset="0.178082" stop-color="#EB4948"/><stop offset="0.191781" stop-color="#EB4B47"/><stop offset="0.205479" stop-color="#EB4C47"/><stop offset="0.219178" stop-color="#EB4E47"/><stop offset="0.232877" stop-color="#EB4F47"/><stop offset="0.246575" stop-color="#EB5147"/><stop offset="0.260274" stop-color="#EB5247"/><stop offset="0.273973" stop-color="#EB5446"/><stop offset="0.287671" stop-color="#EB5546"/><stop offset="0.30137" stop-color="#EB5746"/><stop offset="0.315068" stop-color="#EC5846"/><stop offset="0.328767" stop-color="#EC5946"/><stop offset="0.342466" stop-color="#EC5B45"/><stop offset="0.356164" stop-color="#EC5C45"/><stop offset="0.369863" stop-color="#EC5D45"/><stop offset="0.383562" stop-color="#EC5F45"/><stop offset="0.39726" stop-color="#EC6044"/><stop offset="0.410959" stop-color="#EC6144"/><stop offset="0.424658" stop-color="#EC6244"/><stop offset="0.438356" stop-color="#EC6343"/><stop offset="0.452055" stop-color="#EC6543"/><stop offset="0.465753" stop-color="#EC6643"/><stop offset="0.479452" stop-color="#EC6742"/><stop offset="0.493151" stop-color="#EC6842"/><stop offset="0.506849" stop-color="#EC6942"/><stop offset="0.520548" stop-color="#EC6A41"/><stop offset="0.534247" stop-color="#EC6B41"/><stop offset="0.547945" stop-color="#EC6C41"/><stop offset="0.561644" stop-color="#EC6D40"/><stop offset="0.575342" stop-color="#EC6E40"/><stop offset="0.589041" stop-color="#EC6F40"/><stop offset="0.60274" stop-color="#EC6F3F"/><stop offset="0.616438" stop-color="#EC703F"/><stop offset="0.630137" stop-color="#EC713E"/><stop offset="0.643836" stop-color="#EC723E"/><stop offset="0.657534" stop-color="#EC733E"/><stop offset="0.671233" stop-color="#EC733D"/><stop offset="0.684932" stop-color="#EC743D"/><stop offset="0.69863" stop-color="#EC753C"/><stop offset="0.712329" stop-color="#EC753C"/><stop offset="0.726027" stop-color="#EC763B"/><stop offset="0.739726" stop-color="#EC773B"/><stop offset="0.753425" stop-color="#EC773A"/><stop offset="0.767123" stop-color="#EC783A"/><stop offset="0.780822" stop-color="#EC7839"/><stop offset="0.794521" stop-color="#EC7939"/><stop offset="0.808219" stop-color="#EC7938"/><stop offset="0.821918" stop-color="#EC7A38"/><stop offset="0.835616" stop-color="#EC7A37"/><stop offset="0.849315" stop-color="#EC7A37"/><stop offset="0.863014" stop-color="#EC7B36"/><stop offset="0.876712" stop-color="#EC7B36"/><stop offset="0.890411" stop-color="#EC7B35"/><stop offset="0.90411" stop-color="#EC7C35"/><stop offset="0.917808" stop-color="#EC7C34"/><stop offset="0.931507" stop-color="#EC7C33"/><stop offset="0.945205" stop-color="#EC7C33"/><stop offset="0.958904" stop-color="#EC7C32"/><stop offset="0.972603" stop-color="#EC7C32"/><stop offset="0.986301" stop-color="#EC7C31"/><stop offset="1" stop-color="#ED7D31"/></linearGradient><linearGradient x1="291.303" y1="347.489" x2="989.697" y2="933.511" gradientUnits="userSpaceOnUse" spreadMethod="reflect" id="fill2"><stop offset="0" stop-color="#EB3349"/><stop offset="0.0136986" stop-color="#EB3448"/><stop offset="0.0273973" stop-color="#EB3648"/><stop offset="0.0410959" stop-color="#EB3848"/><stop offset="0.0547945" stop-color="#EB3A48"/><stop offset="0.0684932" stop-color="#EB3C48"/><stop offset="0.0821918" stop-color="#EB3D48"/><stop offset="0.0958904" stop-color="#EB3F48"/><stop offset="0.109589" stop-color="#EB4148"/><stop offset="0.123288" stop-color="#EB4348"/><stop offset="0.136986" stop-color="#EB4448"/><stop offset="0.150685" stop-color="#EB4648"/><stop offset="0.164384" stop-color="#EB4848"/><stop offset="0.178082" stop-color="#EB4948"/><stop offset="0.191781" stop-color="#EB4B47"/><stop offset="0.205479" stop-color="#EB4C47"/><stop offset="0.219178" stop-color="#EB4E47"/><stop offset="0.232877" stop-color="#EB4F47"/><stop offset="0.246575" stop-color="#EB5147"/><stop offset="0.260274" stop-color="#EB5247"/><stop offset="0.273973" stop-color="#EB5446"/><stop offset="0.287671" stop-color="#EB5546"/><stop offset="0.30137" stop-color="#EB5746"/><stop offset="0.315068" stop-color="#EC5846"/><stop offset="0.328767" stop-color="#EC5946"/><stop offset="0.342466" stop-color="#EC5B45"/><stop offset="0.356164" stop-color="#EC5C45"/><stop offset="0.369863" stop-color="#EC5D45"/><stop offset="0.383562" stop-color="#EC5F45"/><stop offset="0.39726" stop-color="#EC6044"/><stop offset="0.410959" stop-color="#EC6144"/><stop offset="0.424658" stop-color="#EC6244"/><stop offset="0.438356" stop-color="#EC6343"/><stop offset="0.452055" stop-color="#EC6543"/><stop offset="0.465753" stop-color="#EC6643"/><stop offset="0.479452" stop-color="#EC6742"/><stop offset="0.493151" stop-color="#EC6842"/><stop offset="0.506849" stop-color="#EC6942"/><stop offset="0.520548" stop-color="#EC6A41"/><stop offset="0.534247" stop-color="#EC6B41"/><stop offset="0.547945" stop-color="#EC6C41"/><stop offset="0.561644" stop-color="#EC6D40"/><stop offset="0.575342" stop-color="#EC6E40"/><stop offset="0.589041" stop-color="#EC6F40"/><stop offset="0.60274" stop-color="#EC6F3F"/><stop offset="0.616438" stop-color="#EC703F"/><stop offset="0.630137" stop-color="#EC713E"/><stop offset="0.643836" stop-color="#EC723E"/><stop offset="0.657534" stop-color="#EC733E"/><stop offset="0.671233" stop-color="#EC733D"/><stop offset="0.684932" stop-color="#EC743D"/><stop offset="0.69863" stop-color="#EC753C"/><stop offset="0.712329" stop-color="#EC753C"/><stop offset="0.726027" stop-color="#EC763B"/><stop offset="0.739726" stop-color="#EC773B"/><stop offset="0.753425" stop-color="#EC773A"/><stop offset="0.767123" stop-color="#EC783A"/><stop offset="0.780822" stop-color="#EC7839"/><stop offset="0.794521" stop-color="#EC7939"/><stop offset="0.808219" stop-color="#EC7938"/><stop offset="0.821918" stop-color="#EC7A38"/><stop offset="0.835616" stop-color="#EC7A37"/><stop offset="0.849315" stop-color="#EC7A37"/><stop offset="0.863014" stop-color="#EC7B36"/><stop offset="0.876712" stop-color="#EC7B36"/><stop offset="0.890411" stop-color="#EC7B35"/><stop offset="0.90411" stop-color="#EC7C35"/><stop offset="0.917808" stop-color="#EC7C34"/><stop offset="0.931507" stop-color="#EC7C33"/><stop offset="0.945205" stop-color="#EC7C33"/><stop offset="0.958904" stop-color="#EC7C32"/><stop offset="0.972603" stop-color="#EC7C32"/><stop offset="0.986301" stop-color="#EC7C31"/><stop offset="1" stop-color="#ED7D31"/></linearGradient></defs><g clip-path="url(#clip0)" transform="translate(-285 -354)"><path d="M702.921 805.314C698.842 815.957 688.2 822.586 676.871 821.389 665.519 820.28 656.341 811.722 654.39 800.548L633.882 681 632.131 691.487 632.131 691.531 632.131 691.509 610.803 808.662C608.652 820.613 598.166 829.437 586.06 829.437 585.972 829.437 585.861 829.437 585.772 829.437 573.756 829.437 563.424 821.078 561.008 809.283L541.032 711.818 535.955 720.132C531.299 727.515 523.207 732.149 514.494 732.149L374 732.149C425.746 789.927 507.644 857.816 637.252 925.483 637.452 925.882 637.762 926.037 638.228 925.993 768.435 858.215 855.099 790.105 907 732.149L730.967 732.149 702.921 805.314Z" fill="url(#fill1)" fill-rule="evenodd"/><path d="M995.068 559.667 995.068 559.445C995.667 553.321 996 547.151 996 540.894 996 438.194 912.812 355 810.148 355 734.613 355 669.549 400.159 640.511 464.956L640.511 464.956C611.451 400.159 546.431 355.022 470.852 355.022 368.21 355 285 438.238 285 540.916 285 547.196 285.311 553.409 285.932 559.534L285 559.867C285 559.867 285 609.242 334.336 682.583L500.379 682.583 531.591 632.298C537.092 623.555 547.43 618.917 557.523 620.67 567.727 622.512 575.758 630.323 577.843 640.442L584.143 671.288 608.634 535.612 608.634 535.612C610.963 527.379 614.623 513.51 626.491 512.334 626.513 512.267 626.513 512.201 626.536 512.156 628.954 511.357 631.527 510.781 634.167 510.781 634.211 510.781 634.233 510.781 634.255 510.781 643.484 510.781 654.132 516.506 658.169 528.311L658.125 528.311C658.568 529.532 658.923 530.752 659.123 532.084L688.538 702 689.936 698.583C693.663 688.796 703.091 682.583 713.561 682.583L946.62 682.583C995.978 609.242 995.978 559.867 995.978 559.867L995.068 559.667ZM476.132 395.987C492.969 395.987 506.634 409.612 506.634 426.477 506.634 443.32 492.969 456.967 476.132 456.967 459.295 456.967 445.674 443.32 445.674 426.477 445.674 409.612 459.295 395.987 476.132 395.987ZM396.671 586.762C400.398 600.232 392.523 614.19 379.08 617.919 376.817 618.562 374.532 618.851 372.292 618.851 361.222 618.851 351.062 611.528 347.912 600.321 343.276 583.611 341.057 568.344 340.503 554.43 337.907 482.842 381.564 447.958 383.783 446.227 394.83 437.706 410.691 439.659 419.276 450.754 427.772 461.716 425.865 477.45 415.039 486.082 413.375 487.458 390.66 507.252 391.081 549.77L391.236 549.748 391.081 549.77C391.192 560.599 392.811 572.893 396.671 586.762Z" fill="url(#fill2)" fill-rule="evenodd"/></g></svg>