<svg width="582" height="682" xmlns="http://www.w3.org/2000/svg" xmlns:xlink="http://www.w3.org/1999/xlink" overflow="hidden"><defs><clipPath id="clip0"><rect x="349" y="299" width="582" height="682"/></clipPath></defs><g clip-path="url(#clip0)" transform="translate(-349 -299)"><path d="M529.206 406.258 529.206 603.363 708.219 504.811ZM419.815 299 640 299 640.006 299.001 650.741 299.001 650.741 300.033 684.375 303.27C784.71 322.868 860.185 407.61 860.185 509.178 860.185 596.238 804.734 670.933 725.706 702.84L714.47 706.17 930 981 698.899 981 533.488 728.077 533.488 981 350 981 350 701.914 350 603.362 529.012 504.811 350 406.258 350 299.001 395.156 299.001 419.815 299.001Z" fill="#FFFFFF" fill-rule="evenodd"/></g></svg>